inDegrees=no
num_controls=7
num_derivatives=13
num_iterations=104
num_multipliers=7
num_parameters=0
num_slacks=7
num_states=26
objective=0.443987
objective_accelerations=0.059320
objective_balance=0.003822
objective_effort=0.024231
objective_height=0.351081
objective_ligament=0.005533
solver_duration=1551.586475
status=Solve_Succeeded
success=true
DataType=double
version=3
OpenSimVersion=4.5
endheader
time	/jointset/ground_pelvis/pelvis_tilt/value	/jointset/ground_pelvis/pelvis_tx/value	/jointset/ground_pelvis/pelvis_ty/value	/jointset/hip_l/hip_flexion_l/value	/jointset/hip_l/hip_adduction_l/value	/jointset/hip_l/hip_rotation_l/value	/jointset/back/lumbar_extension/value	/jointset/patellofemoral_l/patellar_flexion_l/value	/jointset/knee_l/knee_flexion_l/value	/jointset/knee_l/knee_adduction_l/value	/jointset/knee_l/knee_rotation_l/value	/jointset/ankle_l/ankle_angle_l/value	/jointset/subtalar_l/subtalar_angle_l/value	/jointset/ground_pelvis/pelvis_tilt/speed	/jointset/ground_pelvis/pelvis_tx/speed	/jointset/ground_pelvis/pelvis_ty/speed	/jointset/hip_l/hip_flexion_l/speed	/jointset/hip_l/hip_adduction_l/speed	/jointset/hip_l/hip_rotation_l/speed	/jointset/back/lumbar_extension/speed	/jointset/patellofemoral_l/patellar_flexion_l/speed	/jointset/knee_l/knee_flexion_l/speed	/jointset/knee_l/knee_adduction_l/speed	/jointset/knee_l/knee_rotation_l/speed	/jointset/ankle_l/ankle_angle_l/speed	/jointset/subtalar_l/subtalar_angle_l/speed	/forceset/tau_hip_flexion_l	/forceset/tau_hip_adduction_l	/forceset/tau_hip_rotation_l	/forceset/tau_knee_flexion_l	/forceset/tau_ankle_angle_l	/forceset/tau_subtalar_angle_l	/forceset/tau_lumbar_extension	lambda_cid13_p0	lambda_cid13_p1	lambda_cid13_p2	lambda_cid13_p3	lambda_cid13_p4	lambda_cid13_p5	lambda_cid14_p0	/jointset/ground_pelvis/pelvis_tilt/accel	/jointset/ground_pelvis/pelvis_tx/accel	/jointset/ground_pelvis/pelvis_ty/accel	/jointset/hip_l/hip_flexion_l/accel	/jointset/hip_l/hip_adduction_l/accel	/jointset/hip_l/hip_rotation_l/accel	/jointset/back/lumbar_extension/accel	/jointset/patellofemoral_l/patellar_flexion_l/accel	/jointset/knee_l/knee_flexion_l/accel	/jointset/knee_l/knee_adduction_l/accel	/jointset/knee_l/knee_rotation_l/accel	/jointset/ankle_l/ankle_angle_l/accel	/jointset/subtalar_l/subtalar_angle_l/accel	gamma_cid13_p0	gamma_cid13_p1	gamma_cid13_p2	gamma_cid13_p3	gamma_cid13_p4	gamma_cid13_p5	gamma_cid14_p0
1	-0.5855314618723977	-0.09556643158945802	0.5578431218302456	1.917894898267756	-0.4650854576859709	0.02093910765729648	-0.2617946809336035	1.402004627131614	1.402004627130901	-0.07980588304740885	-0.1745293576312741	0.1934256818589838	-0.02266325586146177	-0.01841747080735042	0.01089158232588527	0.002768725627805579	-0.0008745374467772129	-0.002313773580204476	0.003934972904746197	-2.827128376464424e-05	0.002348401087833049	0.002348401087832782	-0.00520923636993377	-3.988608079707614e-05	0.02172753713253945	0.0093925225784726	-0.3555574175016716	0.006882798660730375	0.0005894984816687093	-0.2950358243908482	0.04836146629088442	0.03321456065189952	0.298833867247783	-24.76148043997507	-10.72864582177769	2.10454872276505	7.289551326115054	-647.5097079631671	-45.64931344431581	-1.082045564495579	1.60953353406801	0.25426646644281	2.055342345072436	-7.130754096338689	-0.1195283807039608	-2.367795401140162	-0.02218911788246919	-5.353737168546782	-5.353737168546774	-0.6235149653530222	-0.02924313107171456	-0.5160607658829985	-0.4061458521202311	5.00438816913483e-09	1.812530248327914e-08	-1.493655096512904e-08	2.356684455840014e-09	-1.779457010645587e-09	2.250961051533763e-08	2.651429449940331e-09
1.01	-0.5856361429255456	-0.09544486340692986	0.5579734250366185	1.91753095264348	-0.465113496269182	0.02085892810692701	-0.2617949885785932	1.401760517344685	1.401760517344299	-0.07988637648298476	-0.174529855803217	0.193617303263198	-0.02258819521057337	-0.002516187221945387	0.01342484651727255	0.0232874882783297	-0.0719062869229122	-0.003291123978650822	-0.01996829263354305	-3.237597871667146e-05	-0.0511670260937868	-0.05116702609378534	-0.01088888162977624	-6.007240176411628e-05	0.01658956031380645	0.005618732533531451	-0.3554800163476017	0.006997781662279677	0.0005737058078970218	-0.2948578820783718	0.04815639812770782	0.0332387281712274	0.2987791318111044	-24.81378724131187	-10.73383615802528	2.109777115367779	7.233181682941791	-647.36481898685	-45.66325934886362	-1.086465190334525	1.580807291379708	0.2532756529016713	2.049476626127058	-7.088141911649414	-0.08641561565508826	-2.401209727509636	0.0106111150386775	-5.349943529791249	-5.349943529790997	-0.540107922188422	0.01155266812070817	-0.5137432073833068	-0.363131119955453	-3.706210341656421e-09	8.206198840209916e-09	2.518458444947447e-08	2.037172961923766e-09	-1.236136202228006e-08	8.028199813609274e-08	-1.039921266816711e-08
1.02	-0.585581734838719	-0.09529787873100483	0.5583087825497136	1.916456938216762	-0.4651512238056259	0.02053979238170689	-0.2617953108184649	1.400981353678575	1.400981353678517	-0.0800236500943379	-0.174530564028218	0.1937573294857219	-0.02255089956798929	0.01340035718757803	0.0159748810052574	0.04377958697223851	-0.1428882979349884	-0.004251564226700975	-0.0438562620652851	-3.119026005872679e-05	-0.1046623747482733	-0.1046623747482702	-0.01656527152516132	-8.189669353475364e-05	0.01140850079447924	0.001839520917614685	-0.3554026151935385	0.00711276466382582	0.0005579131341000914	-0.2946799397658952	0.04795132996453158	0.03326289569055191	0.2987243963744191	-24.87120708441549	-10.73800168571644	2.114694256746208	7.195504204923124	-647.2923603489687	-45.65413884673254	-1.100094479982973	1.612585698891687	0.2576205257623215	2.050009553749376	-7.120806403526942	-0.1161463506247081	-2.364736179830711	-0.02113103516047039	-5.349721463120122	-5.349721463120125	-0.6228638924615402	-0.02957072523240743	-0.524677306001841	-0.4072301663153366	-1.231358136495945e-08	-1.286851571891012e-09	6.552354354217557e-08	2.130938321594503e-09	-2.275275582977653e-08	1.365634415631447e-07	-2.320099433292789e-08
1.03	-0.5853680404333345	-0.09512526994136239	0.558848848131554	1.914673504885131	-0.4651983984853402	0.01998194304921674	-0.2617955955724483	1.399667429131102	1.399667429131169	-0.0802176455924168	-0.1745314780774018	0.1938452463888169	-0.02255137757117027	0.02934481388677905	0.01855356673329687	0.06422117152038737	-0.2137742760279058	-0.00517220794567592	-0.06770162970808452	-2.423114214897041e-05	-0.1581102673394504	-0.1581102673394514	-0.02222960395656595	-9.729276966745743e-05	0.006159633499302032	-0.001930007553467002	-0.3550068843389714	0.007293235214957785	0.0005117417377506914	-0.2943961660125785	0.0478425238453408	0.03335643179135869	0.2984568427151957	-24.87777935537411	-10.78873633886221	2.135647388899559	7.075469270515823	-646.92443132824	-45.71638493112302	-1.12314955359952	1.586315159671995	0.2589965142055105	2.039372532627051	-7.068884287771536	-0.07835675314731286	-2.39266273175752	0.01183879445623054	-5.340475768461617	-5.340475768462246	-0.5375982822270721	0.01304706548936427	-0.5272784864041478	-0.361057785430946	-2.091989904655342e-08	-1.077555450204329e-08	1.058647253254695e-07	2.228920792016129e-09	-3.314220564539405e-08	1.928296712739343e-07	-3.600023660530758e-08
1.04	-0.5849947135601105	-0.0949266735108634	0.5595929574843317	1.91218193361745	-0.4652544462763671	0.01918599490524812	-0.2617957648534158	1.397819395135447	1.39781939513564	-0.08046816048755959	-0.1745324318644826	0.1938802172099344	-0.02258939957864736	0.04532685075548759	0.02117240917656452	0.08458834115971098	-0.2845158851447199	-0.006026186489187502	-0.09147602436100219	-8.095656657912192e-06	-0.2114842643844326	-0.2114842643844377	-0.02786915093785664	-8.984427407748731e-05	0.000819284398985365	-0.005669279941602984	-0.3546111534844087	0.007473705766088508	0.0004655703413886441	-0.2941123922592613	0.0477337177261505	0.03344996789216439	0.298189289055968	-24.88953198010687	-10.83848301900462	2.156350669969585	6.974294948773574	-646.6296863555351	-45.75608811390945	-1.155911333600584	1.620101732793191	0.2656518688079536	2.035126571984328	-7.091932608306281	-0.1028133155320142	-2.350541581854341	-0.01929576164420891	-5.33494235388117	-5.334942353881147	-0.6179068024387439	-0.02500181088783268	-0.5429736670297333	-0.4011789497261691	-2.794849537669386e-08	-1.64685323462897e-08	1.473224274826877e-07	3.758526827285845e-09	-4.246070471705713e-08	2.438119742062627e-07	-4.706100984328272e-08
1.05	-0.5844613456503548	-0.09470166057201307	0.5605402939626128	1.908983833356152	-0.4653184940162782	0.01815289453073591	-0.2617957618228821	1.39543805440642	1.395438054406421	-0.0807748746513008	-0.1745329199781493	0.1938612584328465	-0.02266444425506465	0.06135482647810525	0.02383940375829667	0.1048593441023676	-0.3550622712488246	-0.006749275254011734	-0.1151074999765635	8.216412260940342e-06	-0.2647656913427757	-0.2647656913427858	-0.03345971722687174	2.806544939387049e-05	-0.004632566367785245	-0.0093095381433569	-0.3538755751357766	0.007726785273227336	0.0003909370221549956	-0.2937461880878511	0.04773053532753067	0.03361310865596503	0.2976862178567147	-24.84808889865129	-10.93545331857008	2.193355137928222	6.798399793699317	-646.0423029113881	-45.87553043541293	-1.198846444682428	1.595353613174113	0.2686081100677154	2.020135153348232	-7.029714401612176	-0.05196071486121661	-2.36400352841916	0.01202188849387087	-5.322002630399282	-5.322002630400029	-0.5275585673599634	0.03561237273838927	-0.5495195062224467	-0.3409503981103758	-3.492778791460139e-08	-2.204289378160157e-08	1.88815020901591e-07	5.332871098957057e-09	-5.174573657797165e-08	2.946291544267642e-07	-5.806745592393272e-08
1.06	-0.5837674563591374	-0.09444970071590306	0.561689750069909	1.905081524675782	-0.4653887534554182	0.01688456880466911	-0.2617956102321936	1.392524447455092	1.3925244474549	-0.08113707988297525	-0.174531143992919	0.1937871354031468	-0.02277499174204157	0.07743112704784529	0.02656179262850071	0.1250122669626993	-0.4253575689589143	-0.007268526334981416	-0.1385210946726103	2.161637453732377e-05	-0.3179375088446547	-0.3179375088446698	-0.03896736452496968	0.0003629755238155281	-0.01021356612342455	-0.01276984205352578	-0.3531399967871415	0.007979864780373408	0.0003163037029292636	-0.2933799839164407	0.04772735292891254	0.03377624941977559	0.2971831466574634	-24.81191746151344	-11.03144871206948	2.230145033815262	6.641514358879038	-645.5292491770568	-45.97363897086596	-1.252460352483912	1.629766702217665	0.2767307265023351	2.011510555519372	-7.041714929503279	-0.0620457787611195	-2.306965397951463	-0.01987818297270732	-5.313020462588334	-5.313020462588353	-0.6013230042553172	0.01839825930219883	-0.5688034648034637	-0.3651880914091775	-4.187578713269961e-08	-2.784797830233419e-08	2.291150050868257e-07	6.920336578328144e-09	-6.079364017067985e-08	3.420593086061849e-07	-6.864016456241039e-08
1.07	-0.5829125170547206	-0.09417020521615044	0.5630400680961486	1.900477669340906	-0.4654630741433742	0.01538335652108803	-0.2617953636110514	1.389079759860376	1.389079759860395	-0.08155391789561324	-0.1745248262826902	0.193656492102442	-0.02291913897610683	0.09356717353702311	0.02934972877798709	0.1450239986008168	-0.4953545557961919	-0.007546929356772193	-0.1616676303937533	2.69929873975138e-05	-0.3709734557758402	-0.3709734557758249	-0.04437944665221653	0.0009540823488621532	-0.01594217033115363	-0.01601443565962594	-0.3520725794613696	0.00832450980721294	0.0002116520526720641	-0.2929167432640161	0.04784439512310125	0.03398139099593867	0.29645355131116	-24.7176136518937	-11.16201819140416	2.279476868142699	6.403438301890685	-644.7162180546342	-46.11852183172974	-1.317438638531388	1.60708130652104	0.2816900017430967	1.991889421736034	-6.969858852432211	-0.003460981860840285	-2.31048679001564	0.01063835341734882	-5.294882672801113	-5.294882672796536	-0.5080611569267683	0.08756231653806776	-0.578949812173254	-0.2973459945345815	-4.88221218125101e-08	-3.366533532761047e-08	2.693515526106951e-07	8.508499994279012e-09	-6.982893055763238e-08	3.893093018259735e-07	-7.918980206034699e-08
1.08	-0.581895905748561	-0.09386245736638871	0.5645896804295251	1.89517561047934	-0.4655387235451426	0.0136522810541341	-0.2617950846697801	1.385105512623464	1.385105512623692	-0.08202425879751554	-0.1745109784197058	0.1934677505769771	-0.02309438234609793	0.1097655273963291	0.03221226263032227	0.1648711283900584	-0.5649982742971582	-0.007534269097475713	-0.1844937313476929	2.808040033639986e-05	-0.4238494372837239	-0.4238494372836781	-0.04966794237815932	0.001869006071195632	-0.02183321107550746	-0.01898906923869178	-0.3510051621355886	0.008669154834058905	0.0001070004024271859	-0.2924535026115919	0.04796143731729043	0.03418653257210988	0.2957239559648656	-24.62867041571551	-11.29157977511114	2.328568992764464	6.184478588289817	-643.9788528710412	-46.24398097639148	-1.394522281577087	1.642228176243287	0.291650267072099	1.978590185744188	-6.971061262241007	-0.003833122543686973	-2.242878444510795	-0.02073602295697619	-5.281027377927964	-5.281027377927987	-0.5766057239945099	0.0831616387595342	-0.601290772128405	-0.3111960860023327	-5.57114366368936e-08	-4.048692076818993e-08	3.073771977349271e-07	9.820836534395404e-09	-7.864398710019569e-08	4.3205907354005e-07	-8.927382574522526e-08
